<svg xmlns="http://www.w3.org/2000/svg" fill="none" viewBox="0 0 48 48" id="Headphones-Customer-Support-Human--Streamline-Ultimate.svg" height="48" width="48"><desc>Headphones Customer Support Human Streamline Icon: https://streamlinehq.com</desc><path fill="#ffef5e" d="M24 38.93a13.936 13.936 0 1 0 0 -27.872 13.936 13.936 0 0 0 0 27.872Z" stroke-width="1"></path><path fill="#6b6b6b" d="M38.93 18.028a7.964 7.964 0 0 1 2.656 15.472 1.992 1.992 0 0 1 -2.656 -1.878V18.028Z" stroke-width="1"></path><path fill="#6b6b6b" d="M9.068 18.028a7.964 7.964 0 0 0 -2.654 15.472 1.992 1.992 0 0 0 2.654 -1.878V18.028Z" stroke-width="1"></path><path fill="#808080" d="M46.496 28.48a7.964 7.964 0 0 0 -7.566 -10.452v4.976a7.964 7.964 0 0 1 7.566 5.476Z" stroke-width="1"></path><path fill="#808080" d="M1.106 25.99c0 0.846 0.134 1.686 0.398 2.49a7.964 7.964 0 0 1 7.564 -5.476V18.028a7.962 7.962 0 0 0 -7.962 7.962Z" stroke-width="1"></path><path stroke="#191919" stroke-linecap="round" stroke-linejoin="round" d="M31.964 43.908h1.99c3.85 0 6.968 -2.122 6.968 -5.972v-4.322" stroke-width="1"></path><path stroke="#191919" stroke-linecap="round" stroke-linejoin="round" d="M38.93 18.028a7.964 7.964 0 0 1 2.656 15.472 1.992 1.992 0 0 1 -2.656 -1.878V18.028Z" stroke-width="1"></path><path stroke="#191919" stroke-linecap="round" stroke-linejoin="round" d="M9.068 18.028a7.964 7.964 0 0 0 -2.654 15.472 1.992 1.992 0 0 0 2.654 -1.878V18.028Z" stroke-width="1"></path><path stroke="#191919" stroke-linecap="round" stroke-linejoin="round" d="M38.932 21.014v-3.98a14.93 14.93 0 0 0 -29.864 0v3.98" stroke-width="1"></path><path fill="#6b6b6b" stroke="#191919" stroke-linecap="round" stroke-linejoin="round" d="M23.004 41.918h7.964a0.996 0.996 0 0 1 0.996 0.994v1.992a0.996 0.996 0 0 1 -0.996 0.996h-7.964a1.99 1.99 0 0 1 0 -3.982v0Z" stroke-width="1"></path><path stroke="#191919" stroke-linecap="round" stroke-linejoin="round" d="M30.42 30.3a9.076 9.076 0 0 1 -12.84 0" stroke-width="1"></path><path stroke="#191919" d="M17.5 22.32a0.5 0.5 0 1 1 0 -1" stroke-width="1"></path><path stroke="#191919" d="M17.5 22.32a0.5 0.5 0 1 0 0 -1" stroke-width="1"></path><g><path stroke="#191919" d="M30.5 22.32a0.5 0.5 0 1 1 0 -1" stroke-width="1"></path><path stroke="#191919" d="M30.5 22.32a0.5 0.5 0 1 0 0 -1" stroke-width="1"></path></g></svg>