<svg xmlns="http://www.w3.org/2000/svg" fill="none" viewBox="0 0 24 24" id="E-Learning-Exchange--Streamline-Ultimate.svg" height="24" width="24"><desc>E Learning Exchange Streamline Icon: https://streamlinehq.com</desc><path fill="#66e1ff" d="M12 20.7787C16.848 20.7787 20.7781 16.8486 20.7781 12.0006C20.7781 7.1525 16.848 3.2224 12 3.2224C7.152 3.2224 3.2219 7.1525 3.2219 12.0006C3.2219 16.8486 7.152 20.7787 12 20.7787Z" stroke-width="1"></path><path stroke="#191919" stroke-linecap="round" stroke-linejoin="round" d="M17.5997 9.7607V15.3604" stroke-width="1"></path><path stroke="#191919" stroke-linecap="round" stroke-linejoin="round" d="M23.1995 11.9994C23.1995 14.9698 22.0195 17.8183 19.9193 19.9187C17.8189 22.0189 14.9703 23.1989 12 23.1989C10.2805 23.1003 8.5992 22.6523 7.0587 21.8821C5.5182 21.1118 4.1509 20.0356 3.0404 18.7191" stroke-width="1"></path><path stroke="#191919" stroke-linecap="round" stroke-linejoin="round" d="M0.8005 11.9994C0.8005 9.0292 1.9805 6.1805 4.0808 4.0802C6.1811 1.9799 9.0297 0.8 12 0.8C13.7194 0.8985 15.4008 1.3466 16.9413 2.1168C18.4818 2.8871 19.849 3.9633 20.9596 5.2798" stroke-width="1"></path><path stroke="#191919" stroke-linecap="round" stroke-linejoin="round" d="M16.4798 5.2809H20.9596V0.8011" stroke-width="1"></path><path stroke="#191919" stroke-linecap="round" stroke-linejoin="round" d="M7.5202 18.7202H3.0404V23.2" stroke-width="1"></path><path fill="#e3e3e3" d="M12.4155 11.7172C12.1489 11.8247 11.851 11.8247 11.5845 11.7172L8.6402 10.5435V14.1273C9.0938 14.5339 9.626 14.8431 10.2039 15.0357C10.7818 15.2284 11.3931 15.3004 12 15.2473C12.6069 15.3004 13.2182 15.2284 13.7961 15.0357C14.3739 14.8431 14.9061 14.5339 15.3598 14.1273V10.5435L12.4155 11.7172Z" stroke-width="1"></path><path fill="#808080" stroke="#191919" stroke-linecap="round" stroke-linejoin="round" d="M11.5845 7.5712L6.725 9.5143C6.6991 9.5247 6.6769 9.5426 6.6612 9.5658C6.6456 9.5889 6.6372 9.6162 6.6372 9.6442C6.6372 9.6721 6.6456 9.6995 6.6612 9.7226C6.6769 9.7458 6.6991 9.7637 6.725 9.7741L11.5845 11.7172C11.851 11.8247 12.1489 11.8247 12.4155 11.7172L17.5997 9.6475L12.4155 7.5712C12.1489 7.4637 11.851 7.4637 11.5845 7.5712H11.5845Z" stroke-width="1"></path><path stroke="#191919" stroke-linecap="round" stroke-linejoin="round" d="M8.6402 12.4474V14.1273C9.0938 14.5339 9.626 14.8431 10.2039 15.0357C10.7818 15.2284 11.3931 15.3004 12 15.2473C12.6069 15.3004 13.2182 15.2284 13.7961 15.0357C14.3739 14.8431 14.9061 14.5339 15.3598 14.1273V12.4474" stroke-width="1"></path><path stroke="#191919" stroke-linecap="round" stroke-linejoin="round" d="M17.5997 17.4838V18.6038" stroke-width="1"></path></svg>