<svg xmlns="http://www.w3.org/2000/svg" fill="none" viewBox="0 0 24 24" id="Insurance-Hand--Streamline-Ultimate.svg" height="24" width="24"><desc>Insurance Hand Streamline Icon: https://streamlinehq.com</desc><path fill="#ffdda1" d="M14.5 18.5h-3a4 4 0 0 0 -4 -4h-7v8h18a4 4 0 0 0 -4 -4Z" stroke-width="1"></path><path stroke="#191919" stroke-linecap="round" stroke-linejoin="round" d="M11.5 18.5h3a4 4 0 0 1 4 4H0.5" stroke-width="1"></path><path stroke="#191919" stroke-linecap="round" stroke-linejoin="round" d="M0.5 14.5h7a4 4 0 0 1 4 4H7" stroke-width="1"></path><path stroke="#191919" stroke-linecap="round" stroke-linejoin="round" d="M0.5 13.5v10" stroke-width="1"></path><path fill="#ff808c" d="M23.5 5a0.5 0.5 0 0 0 -0.5 -0.5h-3.5V1a0.5 0.5 0 0 0 -0.5 -0.5h-3a0.5 0.5 0 0 0 -0.5 0.5v3.5H12a0.5 0.5 0 0 0 -0.5 0.5v3a0.5 0.5 0 0 0 0.5 0.5h3.5V12a0.5 0.5 0 0 0 0.5 0.5h3a0.5 0.5 0 0 0 0.5 -0.5V8.5H23a0.5 0.5 0 0 0 0.5 -0.5V5Z" stroke-width="1"></path><path fill="#ffbfc5" d="M20.021 4.5H19.5V1a0.5 0.5 0 0 0 -0.5 -0.5h-3a0.5 0.5 0 0 0 -0.5 0.5v3.5H12a0.5 0.5 0 0 0 -0.5 0.5v3a0.5 0.5 0 0 0 0.5 0.5h3.5v0.521L20.021 4.5Z" stroke-width="1"></path><path stroke="#191919" stroke-linecap="round" stroke-linejoin="round" d="M23.5 5a0.5 0.5 0 0 0 -0.5 -0.5h-3.5V1a0.5 0.5 0 0 0 -0.5 -0.5h-3a0.5 0.5 0 0 0 -0.5 0.5v3.5H12a0.5 0.5 0 0 0 -0.5 0.5v3a0.5 0.5 0 0 0 0.5 0.5h3.5V12a0.5 0.5 0 0 0 0.5 0.5h3a0.5 0.5 0 0 0 0.5 -0.5V8.5H23a0.5 0.5 0 0 0 0.5 -0.5V5Z" stroke-width="1"></path></svg>