<svg xmlns="http://www.w3.org/2000/svg" fill="none" viewBox="0 0 24 24" id="Business-Contract-Handshake-Sign--Streamline-Ultimate.svg" height="24" width="24"><desc>Business Contract Handshake Sign Streamline Icon: https://streamlinehq.com</desc><path fill="#e3e3e3" d="M16.4096 0.73H4.1607C3.3811 0.73 2.6333 1.0397 2.082 1.591C1.5307 2.1423 1.221 2.89 1.221 3.6697V20.3281C1.221 20.4581 1.2726 20.5827 1.3645 20.6746C1.4564 20.7665 1.581 20.8181 1.711 20.8181H13.4699C13.5998 20.8181 13.7245 20.7665 13.8164 20.6746C13.9082 20.5827 13.9598 20.4581 13.9598 20.3281V3.6697" stroke-width="1"></path><path fill="#ffffff" d="M15.6257 0.73H4.1607C3.3811 0.73 2.6333 1.0397 2.082 1.591C1.5307 2.1423 1.221 2.89 1.221 3.6697V15.1346L15.6257 0.73Z" stroke-width="1"></path><path stroke="#191919" stroke-linecap="round" stroke-linejoin="round" d="M16.4096 0.73H4.1607C3.3811 0.73 2.6333 1.0397 2.082 1.591C1.5307 2.1423 1.221 2.89 1.221 3.6697V20.3281C1.221 20.4581 1.2726 20.5827 1.3645 20.6746C1.4564 20.7665 1.581 20.8181 1.711 20.8181H13.4699C13.5998 20.8181 13.7245 20.7665 13.8164 20.6746C13.9082 20.5827 13.9598 20.4581 13.9598 20.3281V3.6697" stroke-width="1"></path><path stroke="#191919" stroke-linecap="round" stroke-linejoin="round" d="M15.9765 21.2473H15.9667" stroke-width="1"></path><path fill="#ffdda1" stroke="#191919" stroke-linecap="round" stroke-linejoin="round" d="M20.0431 15.8088C19.9106 15.9807 19.839 16.1915 19.8393 16.4085V20.4761L15.9784 21.2492L17.0759 20.3673C17.2114 20.2562 17.2976 20.0962 17.3159 19.9219C17.3342 19.7477 17.2833 19.5733 17.1739 19.4364L15.2925 17.359L14.5968 17.6432C14.3293 17.7541 14.0304 17.7624 13.7572 17.6666C13.484 17.5707 13.2557 17.3775 13.1162 17.1238C12.9766 16.8701 12.9355 16.5739 13.0008 16.2919C13.066 16.0098 13.233 15.7617 13.4699 15.5952C13.5218 15.5569 13.5776 15.5239 13.6364 15.4972L15.4493 14.6152C15.6472 14.5169 15.8633 14.46 16.084 14.4483C16.3047 14.4364 16.5256 14.4699 16.7329 14.5466L20.0431 15.8088Z" stroke-width="1"></path><path stroke="#191919" stroke-linecap="round" stroke-linejoin="round" d="M16.4076 16.8965L15.2905 17.3571" stroke-width="1"></path><path fill="#ffdda1" stroke="#191919" stroke-linecap="round" stroke-linejoin="round" d="M17.074 20.3654L15.9765 21.2473H15.9667L13.6443 23.1199C13.509 23.2294 13.3365 23.2823 13.1631 23.2677C12.9896 23.2531 12.8285 23.172 12.7134 23.0415L10.4321 21.308H9.0603V16.4085L11.853 15.2238C12.0215 15.1575 12.2011 15.1241 12.3822 15.1258C12.6883 15.1254 12.9867 15.2217 13.2347 15.4012L13.4699 15.5971C13.233 15.7637 13.066 16.0117 13.0008 16.2939C12.9355 16.5759 12.9766 16.8721 13.1162 17.1258C13.2558 17.3795 13.484 17.5727 13.7572 17.6686C14.0304 17.7644 14.3293 17.7561 14.5968 17.6451L15.2925 17.361L17.1739 19.4384C17.2818 19.5753 17.3318 19.749 17.3131 19.9223C17.2944 20.0956 17.2085 20.2547 17.074 20.3654H17.074Z" stroke-width="1"></path><path fill="#66e1ff" stroke="#191919" stroke-linecap="round" stroke-linejoin="round" d="M9.0603 16.4085V21.308C9.0603 21.5679 8.957 21.8172 8.7733 22.0009C8.5895 22.1847 8.3403 22.288 8.0804 22.288H6.1205V15.4286H8.0804C8.3403 15.4286 8.5895 15.5319 8.7733 15.7156C8.957 15.8993 9.0603 16.1486 9.0603 16.4085Z" stroke-width="1"></path><path fill="#66e1ff" stroke="#191919" stroke-linecap="round" stroke-linejoin="round" d="M22.779 15.4286V22.288H20.8192C20.5593 22.288 20.31 22.1847 20.1263 22.0009S19.8393 21.5679 19.8393 21.308V16.4085C19.8402 16.1923 19.9125 15.9825 20.0451 15.8117C20.1355 15.6922 20.2526 15.5954 20.3869 15.5288C20.5213 15.4623 20.6693 15.428 20.8192 15.4286H22.779Z" stroke-width="1"></path><path stroke="#191919" stroke-linecap="round" stroke-linejoin="round" d="M4.1607 5.1395H11.0201" stroke-width="1"></path><path stroke="#191919" stroke-linecap="round" stroke-linejoin="round" d="M4.1607 8.0793H11.0201" stroke-width="1"></path><path stroke="#191919" stroke-linecap="round" stroke-linejoin="round" d="M4.1607 11.019H7.5904" stroke-width="1"></path><path fill="#eeeeee" stroke="#191919" stroke-linecap="round" stroke-linejoin="round" d="M13.9598 3.6697V3.1797C13.9598 2.53 14.2179 1.9069 14.6773 1.4475C15.1368 0.9881 15.7599 0.73 16.4096 0.73C17.7619 0.73 18.8594 1.8265 18.8594 3.6697H13.9598Z" stroke-width="1"></path></svg>