<svg xmlns="http://www.w3.org/2000/svg" fill="none" viewBox="0 0 24 24" id="Escalator-People--Streamline-Ultimate.svg" height="24" width="24"><desc>Escalator People Streamline Icon: https://streamlinehq.com</desc><path fill="#e3e3e3" d="M6 19.351V13a1.5 1.5 0 0 0 -3 0v6.351h3Z" stroke-width="1"></path><path fill="#e3e3e3" d="M11 16.351V10a1.5 1.5 0 1 0 -3 0v6.351h3Z" stroke-width="1"></path><path fill="#e3e3e3" d="M16 13.351V7a1.5 1.5 0 0 0 -1.5 -1.5A1.5 1.5 0 0 0 13 7v6.351h3Z" stroke-width="1"></path><path fill="#e3e3e3" stroke="#191919" stroke-linecap="round" stroke-linejoin="round" d="M4.5 10a1.75 1.75 0 1 0 0 -3.5 1.75 1.75 0 0 0 0 3.5Z" stroke-width="1"></path><path fill="#66e1ff" d="M8 22.71a2.5 2.5 0 0 1 -1.824 0.79H3a2.5 2.5 0 0 1 0 -5h1.277a2 2 0 0 0 1.4 -0.571L17 8.29a2.5 2.5 0 0 1 1.824 -0.79H21a2.5 2.5 0 0 1 0 5h-0.277a2 2 0 0 0 -1.4 0.571L8 22.71Z" stroke-width="1"></path><path fill="#c2f3ff" d="M5.277 20.5a2 2 0 0 0 1.4 -0.571L18 10.29a2.5 2.5 0 0 1 1.824 -0.79h3.626a2.5 2.5 0 0 0 -2.45 -2h-2.176A2.5 2.5 0 0 0 17 8.29L5.676 17.929a2 2 0 0 1 -1.4 0.571H3a2.5 2.5 0 0 0 -2.45 2h4.727Z" stroke-width="1"></path><path stroke="#191919" stroke-linecap="round" stroke-linejoin="round" d="M8 22.71a2.5 2.5 0 0 1 -1.824 0.79H3a2.5 2.5 0 0 1 0 -5h1.277a2 2 0 0 0 1.4 -0.571L17 8.29a2.5 2.5 0 0 1 1.824 -0.79H21a2.5 2.5 0 0 1 0 5h-0.277a2 2 0 0 0 -1.4 0.571L8 22.71Z" stroke-width="1"></path><path stroke="#191919" stroke-linecap="round" stroke-linejoin="round" d="M6 15v-2a1.5 1.5 0 0 0 -3 0v3.5" stroke-width="1"></path><path fill="#e3e3e3" stroke="#191919" stroke-linecap="round" stroke-linejoin="round" d="M9.5 7a1.75 1.75 0 1 0 0 -3.5 1.75 1.75 0 0 0 0 3.5Z" stroke-width="1"></path><path stroke="#191919" stroke-linecap="round" stroke-linejoin="round" d="M8 13.5V10a1.5 1.5 0 0 1 3 0v0.5" stroke-width="1"></path><path fill="#e3e3e3" stroke="#191919" stroke-linecap="round" stroke-linejoin="round" d="M14.5 4a1.75 1.75 0 1 0 0 -3.5 1.75 1.75 0 0 0 0 3.5Z" stroke-width="1"></path><path stroke="#191919" stroke-linecap="round" stroke-linejoin="round" d="M15.914 6.5a1.507 1.507 0 0 0 -1.414 -1v0A1.5 1.5 0 0 0 13 7v2" stroke-width="1"></path></svg>