<svg xmlns="http://www.w3.org/2000/svg" fill="none" viewBox="0 0 24 24" id="Headphones-Customer-Support-Question--Streamline-Ultimate.svg" height="24" width="24"><desc>Headphones Customer Support Question Streamline Icon: https://streamlinehq.com</desc><path fill="#c2f3ff" d="M12 17.9716c3.8482 0 6.9679 -3.1196 6.9679 -6.9679 0 -3.8482 -3.1197 -6.96781 -6.9679 -6.96781 -3.84822 0 -6.96783 3.11961 -6.96783 6.96781 0 3.8483 3.11961 6.9679 6.96783 6.9679Z" stroke-width="1"></path><path stroke="#191919" stroke-linecap="round" stroke-linejoin="round" d="M9.01379 8.51595c-0.00044 -0.55823 0.15559 -1.10541 0.4504 -1.57945 0.29481 -0.47403 0.71661 -0.85594 1.21751 -1.10239 0.5009 -0.24644 1.0608 -0.34756 1.6162 -0.29187 0.5555 0.0557 1.0842 0.26597 1.5262 0.60695 0.442 0.34098 0.7795 0.79903 0.9744 1.32216 0.1948 0.52313 0.2391 1.0904 0.1278 1.63743 -0.1113 0.54703 -0.3736 1.05192 -0.7573 1.45742 -0.3837 0.4054 -0.8734 0.6952 -1.4135 0.8364 -0.2102 0.0461 -0.399 0.1614 -0.5359 0.3274 -0.137 0.166 -0.2143 0.3732 -0.2196 0.5884v1.6723" stroke-width="1"></path><path stroke="#191919" stroke-linecap="round" stroke-linejoin="round" d="M15.9816 21.9541h0.9954c1.9252 0 3.484 -1.0611 3.484 -2.9862v-2.161" stroke-width="1"></path><path fill="#6b6b6b" d="M19.4655 9.01367c0.9397 -0.00066 1.8494 0.33104 2.5681 0.93644 0.7186 0.60539 1.2 1.44549 1.359 2.37159 0.159 0.9262 -0.0147 1.8787 -0.4904 2.6891 -0.4757 0.8104 -1.2227 1.4265 -2.1088 1.7392 -0.1502 0.0532 -0.3109 0.0696 -0.4688 0.0478 -0.1578 -0.0219 -0.3081 -0.0813 -0.4382 -0.1732 -0.1301 -0.092 -0.2363 -0.2139 -0.3095 -0.3554 -0.0732 -0.1415 -0.1114 -0.2986 -0.1114 -0.4579V9.01367Z" stroke-width="1"></path><path fill="#6b6b6b" d="M4.53444 9.01367c-0.93969 -0.00066 -1.84933 0.33104 -2.56801 0.93644C1.24775 10.5555 0.766347 11.3956 0.607382 12.3217c-0.158965 0.9262 0.014753 1.8787 0.490428 2.6891 0.47567 0.8104 1.22263 1.4265 2.10876 1.7392 0.15019 0.0532 0.31096 0.0696 0.4688 0.0478 0.15784 -0.0219 0.30813 -0.0813 0.43825 -0.1732 0.13011 -0.092 0.23625 -0.2139 0.30947 -0.3554 0.07323 -0.1415 0.11142 -0.2986 0.11135 -0.4579V9.01367Z" stroke-width="1"></path><path fill="#808080" d="M23.2481 14.2396c0.1967 -0.5981 0.2489 -1.2343 0.1521 -1.8564 -0.0968 -0.6222 -0.3398 -1.2124 -0.7089 -1.7225 -0.3692 -0.51 -0.854 -0.9252 -1.4148 -1.21151 -0.5607 -0.28631 -1.1814 -0.43557 -1.811 -0.43552v2.48853c0.8384 -0.0001 1.6555 0.2645 2.3347 0.756 0.6792 0.4916 1.1859 1.1849 1.4479 1.9814Z" stroke-width="1"></path><path fill="#808080" d="M0.552826 12.9953c-0.000021 0.4227 0.067178 0.8427 0.199081 1.2443 0.262003 -0.7965 0.768713 -1.4898 1.447913 -1.9814 0.6792 -0.4915 1.49623 -0.7561 2.33463 -0.756V9.01367c-1.05599 0 -2.06873 0.41949 -2.81543 1.16623 -0.746702 0.7467 -1.166194 1.7594 -1.166194 2.8154Z" stroke-width="1"></path><path stroke="#191919" stroke-linecap="round" stroke-linejoin="round" d="M19.4656 10.5069V8.51609c0 -1.97999 -0.7866 -3.87888 -2.1867 -5.27894C15.8789 1.83708 13.98 1.05054 12 1.05054s-3.87888 0.78654 -5.27894 2.18661C5.321 4.63721 4.53445 6.5361 4.53445 8.51609v1.99081" stroke-width="1"></path><path fill="#6b6b6b" stroke="#191919" stroke-linecap="round" stroke-linejoin="round" d="M11.5023 20.9587h3.9816c0.132 0 0.2586 0.0525 0.352 0.1458 0.0933 0.0934 0.1457 0.2199 0.1457 0.3519v0.9954c0 0.132 -0.0524 0.2586 -0.1457 0.352 -0.0934 0.0933 -0.22 0.1458 -0.352 0.1458h-3.9816c-0.264 0 -0.5172 -0.1049 -0.7039 -0.2916 -0.1866 -0.1867 -0.2915 -0.4399 -0.2915 -0.7039 0 -0.264 0.1049 -0.5171 0.2915 -0.7038 0.1867 -0.1867 0.4399 -0.2916 0.7039 -0.2916v0Z" stroke-width="1"></path><path stroke="#191919" stroke-linecap="round" stroke-linejoin="round" d="M19.4655 9.01367c0.9397 -0.00066 1.8494 0.33104 2.5681 0.93644 0.7186 0.60539 1.2 1.44549 1.359 2.37159 0.159 0.9262 -0.0147 1.8787 -0.4904 2.6891 -0.4757 0.8104 -1.2227 1.4265 -2.1088 1.7392 -0.1502 0.0532 -0.3109 0.0696 -0.4688 0.0478 -0.1578 -0.0219 -0.3081 -0.0813 -0.4382 -0.1732 -0.1301 -0.092 -0.2363 -0.2139 -0.3095 -0.3554 -0.0732 -0.1415 -0.1114 -0.2986 -0.1114 -0.4579V9.01367Z" stroke-width="1"></path><path stroke="#191919" stroke-linecap="round" stroke-linejoin="round" d="M4.53444 9.01367c-0.93969 -0.00066 -1.84933 0.33104 -2.56801 0.93644C1.24775 10.5555 0.766347 11.3956 0.607382 12.3217c-0.158965 0.9262 0.014753 1.8787 0.490428 2.6891 0.47567 0.8104 1.22263 1.4265 2.10876 1.7392 0.15019 0.0532 0.31096 0.0696 0.4688 0.0478 0.15784 -0.0219 0.30813 -0.0813 0.43825 -0.1732 0.13011 -0.092 0.23625 -0.2139 0.30947 -0.3554 0.07323 -0.1415 0.11142 -0.2986 0.11135 -0.4579V9.01367Z" stroke-width="1"></path><path stroke="#191919" d="M12 17c-0.1381 0 -0.25 -0.1119 -0.25 -0.25s0.1119 -0.25 0.25 -0.25" stroke-width="1"></path><path stroke="#191919" d="M12 17c0.1381 0 0.25 -0.1119 0.25 -0.25s-0.1119 -0.25 -0.25 -0.25" stroke-width="1"></path></svg>