<svg xmlns="http://www.w3.org/2000/svg" fill="none" viewBox="0 0 24 24" id="Safety-Vest--Streamline-Ultimate.svg" height="24" width="24"><desc>Safety Vest Streamline Icon: https://streamlinehq.com</desc><path fill="#ffbc44" d="M4.5 2.5c0 -0.53043 0.21071 -1.03914 0.58579 -1.41421C5.46086 0.710714 5.96957 0.5 6.5 0.5h11c0.5304 0 1.0391 0.210714 1.4142 0.58579 0.3751 0.37507 0.5858 0.88378 0.5858 1.41421v3.6c0 2.243 1 4.485 3.2 4.923 0.2259 0.0461 0.4289 0.1688 0.5747 0.3474 0.1457 0.1786 0.2253 0.4021 0.2253 0.6326V22.5c0 0.2652 -0.1054 0.5196 -0.2929 0.7071s-0.4419 0.2929 -0.7071 0.2929h-21c-0.26522 0 -0.51957 -0.1054 -0.707107 -0.2929C0.605357 23.0196 0.5 22.7652 0.5 22.5V12c0.000183 -0.2304 0.079892 -0.4536 0.225655 -0.632 0.145763 -0.1783 0.348645 -0.3009 0.574345 -0.347 2.2 -0.443 3.2 -2.709 3.2 -4.921V2.5Z" stroke-width="1"></path><path fill="#ffdda1" d="M12 0.5H6.5c-0.53043 0 -1.03914 0.210714 -1.41421 0.58579C4.71071 1.46086 4.5 1.96957 4.5 2.5v3.6c0 2.215 -1 4.481 -3.2 4.923 -0.22537 0.046 -0.42799 0.1683 -0.573714 0.3463C0.580561 11.5472 0.500643 11.77 0.5 12v10.5c0 0.2652 0.105357 0.5196 0.292893 0.7071 0.187537 0.1875 0.441887 0.2929 0.707107 0.2929H12V0.5Z" stroke-width="1"></path><path fill="#c77f67" d="M12 9.5c0.9283 0 1.8185 -0.36875 2.4749 -1.02513C15.1313 7.8185 15.5 6.92826 15.5 6V0.5h-7V6c0 0.92826 0.36875 1.8185 1.02513 2.47487C10.1815 9.13125 11.0717 9.5 12 9.5Z" stroke-width="1"></path><path fill="#b2b2b2" d="M23.5 15.5H0.5v4h23v-4Z" stroke-width="1"></path><path fill="#f4f4f4" d="M12 15.5H0.5v4H12v-4Z" stroke-width="1"></path><path stroke="#191919" stroke-linecap="round" stroke-linejoin="round" d="M4.5 2.5c0 -0.53043 0.21071 -1.03914 0.58579 -1.41421C5.46086 0.710714 5.96957 0.5 6.5 0.5h11c0.5304 0 1.0391 0.210714 1.4142 0.58579 0.3751 0.37507 0.5858 0.88378 0.5858 1.41421v3.6c0 2.243 1 4.485 3.2 4.923 0.2259 0.0461 0.4289 0.1688 0.5747 0.3474 0.1457 0.1786 0.2253 0.4021 0.2253 0.6326V22.5c0 0.2652 -0.1054 0.5196 -0.2929 0.7071s-0.4419 0.2929 -0.7071 0.2929h-21c-0.26522 0 -0.51957 -0.1054 -0.707107 -0.2929C0.605357 23.0196 0.5 22.7652 0.5 22.5V12c0.000183 -0.2304 0.079892 -0.4536 0.225655 -0.632 0.145763 -0.1783 0.348645 -0.3009 0.574345 -0.347 2.2 -0.443 3.2 -2.709 3.2 -4.921V2.5Z" stroke-width="1"></path><path fill="#b2b2b2" stroke="#191919" stroke-linecap="round" stroke-linejoin="round" d="M6.5 13.5h-2v8h2v-8Z" stroke-width="1"></path><path fill="#b2b2b2" stroke="#191919" stroke-linecap="round" stroke-linejoin="round" d="M19.5 13.5h-2v8h2v-8Z" stroke-width="1"></path><path stroke="#191919" stroke-linecap="round" stroke-linejoin="round" d="M0.5 15.5h4" stroke-width="1"></path><path stroke="#191919" stroke-linecap="round" stroke-linejoin="round" d="M19.5 15.5h4" stroke-width="1"></path><path stroke="#191919" stroke-linecap="round" stroke-linejoin="round" d="M6.5 15.5h11" stroke-width="1"></path><path stroke="#191919" stroke-linecap="round" stroke-linejoin="round" d="M0.5 19.5h4" stroke-width="1"></path><path stroke="#191919" stroke-linecap="round" stroke-linejoin="round" d="M19.5 19.5h4" stroke-width="1"></path><path stroke="#191919" stroke-linecap="round" stroke-linejoin="round" d="M6.5 19.5h11" stroke-width="1"></path><path stroke="#191919" stroke-linecap="round" stroke-linejoin="round" d="M8.5 0.5V6c0 0.92826 0.36875 1.8185 1.02513 2.47487C10.1815 9.13125 11.0717 9.5 12 9.5c0.9283 0 1.8185 -0.36875 2.4749 -1.02513C15.1313 7.8185 15.5 6.92826 15.5 6V0.5" stroke-width="1"></path></svg>