<svg xmlns="http://www.w3.org/2000/svg" fill="none" viewBox="0 0 24 24" id="Performance-User-Graph--Streamline-Ultimate.svg" height="24" width="24"><desc>Performance User Graph Streamline Icon: https://streamlinehq.com</desc><path fill="#ffef5e" d="M6.953 0.73H22.29C22.8312 0.73 23.27 1.1688 23.27 1.71V11.51C23.27 12.0512 22.8312 12.49 22.29 12.49H6.953C6.4118 12.49 5.973 12.0512 5.973 11.51V1.71C5.973 1.1688 6.4118 0.73 6.953 0.73Z" stroke-width="1"></path><path fill="#fff9bf" d="M6.953 0.73C6.4118 0.73 5.973 1.1688 5.973 1.71V11.51C5.973 12.0512 6.4118 12.49 6.953 12.49H8.5631L20.3231 0.73H6.953Z" stroke-width="1"></path><path stroke="#191919" stroke-linecap="round" stroke-linejoin="round" d="M10.6417 0.73H22.29C22.8312 0.73 23.27 1.1688 23.27 1.71V11.51C23.27 12.0512 22.8312 12.49 22.29 12.49H12.6017" stroke-width="1"></path><path fill="#66e1ff" stroke="#191919" stroke-linecap="round" stroke-linejoin="round" d="M7.59 23.27L8.08 17.39H10.53V13.96C10.53 10.188 6.4467 7.8305 3.18 9.7165C1.6639 10.5918 0.73 12.2094 0.73 13.96V17.39H3.18L3.67 23.27H7.59Z" stroke-width="1"></path><path fill="#ffdda1" stroke="#191919" stroke-linecap="round" stroke-linejoin="round" d="M5.63 7.59C8.2704 7.5899 9.9207 4.7315 8.6004 2.4449C7.9877 1.3837 6.8554 0.73 5.63 0.73C2.9896 0.73 1.3393 3.5883 2.6595 5.875C3.2723 6.9363 4.4045 7.5901 5.63 7.59H5.63Z" stroke-width="1"></path><path stroke="#191919" stroke-linecap="round" stroke-linejoin="round" d="M5.63 11.02V13.96" stroke-width="1"></path><path fill="#c77f67" stroke="#191919" stroke-linecap="round" stroke-linejoin="round" d="M6.7737 4.16C7.5439 4.16 8.3054 4.0052 9.0139 3.7023C8.6793 1.0999 5.653 -0.1643 3.5666 1.4267C3.2093 1.6991 2.9094 2.0396 2.6841 2.4283C3.7568 3.5351 5.2323 4.1599 6.7737 4.16H6.7737Z" stroke-width="1"></path><path stroke="#191919" stroke-linecap="round" stroke-linejoin="round" d="M14.45 12.49V18.37" stroke-width="1"></path><path stroke="#191919" stroke-linecap="round" stroke-linejoin="round" d="M12.49 18.37H16.41" stroke-width="1"></path><path stroke="#191919" stroke-linecap="round" stroke-linejoin="round" d="M10.53 7.59L12.49 5.63L13.96 7.1L18.37 2.69" stroke-width="1"></path><path stroke="#191919" stroke-linecap="round" stroke-linejoin="round" d="M15.43 2.69H18.37V5.63" stroke-width="1"></path><path stroke="#191919" stroke-linecap="round" stroke-linejoin="round" d="M17.39 8.57H19.35" stroke-width="1"></path><path stroke="#191919" stroke-linecap="round" stroke-linejoin="round" d="M17.39 10.53H20.33" stroke-width="1"></path></svg>