<svg xmlns="http://www.w3.org/2000/svg" fill="none" viewBox="0 0 24 24" id="Beacon-Remote-Vehicle--Streamline-Ultimate.svg" height="24" width="24"><desc>Beacon Remote Vehicle Streamline Icon: https://streamlinehq.com</desc><path fill="#ffef5e" d="M22.5 21.5c0.2652 0 0.5196 -0.1054 0.7071 -0.2929s0.2929 -0.4419 0.2929 -0.7071v-8c0 -0.7956 -0.3161 -1.5587 -0.8787 -2.1213C22.0587 9.81607 21.2956 9.5 20.5 9.5h-17c-0.79565 0 -1.55871 0.31607 -2.12132 0.8787C0.81607 10.9413 0.5 11.7044 0.5 12.5v8c0 0.2652 0.105357 0.5196 0.292893 0.7071 0.187537 0.1875 0.441887 0.2929 0.707107 0.2929h21Z" stroke-width="1"></path><path fill="#fff9bf" d="M20.5 9.5h-17c-0.79565 0 -1.55871 0.31607 -2.12132 0.8787C0.81607 10.9413 0.5 11.7044 0.5 12.5V15c0 -0.7956 0.31607 -1.5587 0.87868 -2.1213C1.94129 12.3161 2.70435 12 3.5 12h17c0.7956 0 1.5587 0.3161 2.1213 0.8787 0.5626 0.5626 0.8787 1.3257 0.8787 2.1213v-2.5c0 -0.7956 -0.3161 -1.5587 -0.8787 -2.1213C22.0587 9.81607 21.2956 9.5 20.5 9.5Z" stroke-width="1"></path><path stroke="#191919" stroke-linecap="round" stroke-linejoin="round" d="M7.672 4.5c0.75011 -0.74988 1.76734 -1.17114 2.828 -1.17114 1.0607 0 2.0779 0.42126 2.828 1.17114" stroke-width="1"></path><path stroke="#191919" stroke-linecap="round" stroke-linejoin="round" d="M6.25699 2.25796c0.55716 -0.55726 1.21864 -0.9993 1.94666 -1.300896C8.93167 0.655472 9.71197 0.500244 10.5 0.500244c0.788 0 1.5683 0.155228 2.2963 0.45682 0.728 0.301596 1.3895 0.743636 1.9467 1.300896" stroke-width="1"></path><path fill="#6b6b6b" stroke="#191919" stroke-linecap="round" stroke-linejoin="round" d="M5.75 23.5C6.99264 23.5 8 22.4926 8 21.25S6.99264 19 5.75 19 3.5 20.0074 3.5 21.25s1.00736 2.25 2.25 2.25Z" stroke-width="1"></path><path fill="#6b6b6b" stroke="#191919" stroke-linecap="round" stroke-linejoin="round" d="M18.25 23.5c1.2426 0 2.25 -1.0074 2.25 -2.25S19.4926 19 18.25 19 16 20.0074 16 21.25s1.0074 2.25 2.25 2.25Z" stroke-width="1"></path><path fill="#66e1ff" stroke="#191919" stroke-linecap="round" stroke-linejoin="round" d="M20.162 15.83c0.0685 0.1958 0.1961 0.3654 0.3652 0.4855 0.1691 0.12 0.3714 0.1845 0.5788 0.1845H23.5v-4h-3.092c-0.1597 0 -0.317 0.0382 -0.4589 0.1115 -0.1419 0.0733 -0.2642 0.1795 -0.3566 0.3097 -0.0924 0.1302 -0.1523 0.2807 -0.1747 0.4388 -0.0223 0.1581 -0.0065 0.3193 0.0462 0.47l0.698 2Z" stroke-width="1"></path><path stroke="#191919" stroke-linecap="round" stroke-linejoin="round" d="M8 21.5h8" stroke-width="1"></path><path stroke="#191919" stroke-linecap="round" stroke-linejoin="round" d="M3.5 9.5c-0.79565 0 -1.55871 0.31607 -2.12132 0.8787C0.81607 10.9413 0.5 11.7044 0.5 12.5v8c0 0.2652 0.105357 0.5196 0.292893 0.7071 0.187537 0.1875 0.441887 0.2929 0.707107 0.2929h2" stroke-width="1"></path><path stroke="#191919" stroke-linecap="round" stroke-linejoin="round" d="M20.5 21.5h2c0.2652 0 0.5196 -0.1054 0.7071 -0.2929s0.2929 -0.4419 0.2929 -0.7071v-8c0 -0.7956 -0.3161 -1.5587 -0.8787 -2.1213C22.0587 9.81607 21.2956 9.5 20.5 9.5h-2.941" stroke-width="1"></path><path stroke="#191919" stroke-linecap="round" stroke-linejoin="round" d="M5.75 21c0.04945 0 0.09778 0.0147 0.13889 0.0421 0.04111 0.0275 0.07316 0.0665 0.09208 0.1122 0.01892 0.0457 0.02387 0.096 0.01423 0.1445 -0.00965 0.0485 -0.03346 0.093 -0.06842 0.128 -0.03497 0.0349 -0.07951 0.0587 -0.12801 0.0684 -0.04849 0.0096 -0.09876 0.0047 -0.14444 -0.0142 -0.04568 -0.019 -0.08473 -0.051 -0.1122 -0.0921C5.51466 21.3478 5.5 21.2994 5.5 21.25c0 -0.0663 0.02634 -0.1299 0.07322 -0.1768C5.62011 21.0263 5.6837 21 5.75 21Z" stroke-width="1"></path><path stroke="#191919" stroke-linecap="round" stroke-linejoin="round" d="M18.25 21c0.0494 0 0.0978 0.0147 0.1389 0.0421 0.0411 0.0275 0.0731 0.0665 0.0921 0.1122 0.0189 0.0457 0.0238 0.096 0.0142 0.1445 -0.0097 0.0485 -0.0335 0.093 -0.0684 0.128 -0.035 0.0349 -0.0795 0.0587 -0.128 0.0684 -0.0485 0.0096 -0.0988 0.0047 -0.1445 -0.0142 -0.0457 -0.019 -0.0847 -0.051 -0.1122 -0.0921 -0.0274 -0.0411 -0.0421 -0.0895 -0.0421 -0.1389 0 -0.0663 0.0263 -0.1299 0.0732 -0.1768 0.0469 -0.0469 0.1105 -0.0732 0.1768 -0.0732Z" stroke-width="1"></path><path fill="#e3e3e3" d="M14.5 6.5h-8c-0.55228 0 -1 0.44772 -1 1v8c0 0.5523 0.44772 1 1 1h8c0.5523 0 1 -0.4477 1 -1v-8c0 -0.55228 -0.4477 -1 -1 -1Z" stroke-width="1"></path><path fill="#ffffff" d="M10.5 6.5h-4c-0.26522 0 -0.51957 0.10536 -0.70711 0.29289C5.60536 6.98043 5.5 7.23478 5.5 7.5v8c0 0.2652 0.10536 0.5196 0.29289 0.7071 0.18754 0.1875 0.44189 0.2929 0.70711 0.2929h4v-10Z" stroke-width="1"></path><path stroke="#191919" stroke-linecap="round" stroke-linejoin="round" d="M14.5 6.5h-8c-0.55228 0 -1 0.44772 -1 1v8c0 0.5523 0.44772 1 1 1h8c0.5523 0 1 -0.4477 1 -1v-8c0 -0.55228 -0.4477 -1 -1 -1Z" stroke-width="1"></path><path fill="#66e1ff" stroke="#191919" stroke-linecap="round" stroke-linejoin="round" d="M10.5 13c0.5523 0 1 -0.4477 1 -1s-0.4477 -1 -1 -1c-0.55228 0 -1 0.4477 -1 1s0.44772 1 1 1Z" stroke-width="1"></path><path stroke="#191919" stroke-linecap="round" stroke-linejoin="round" d="M7.5 12c0 -0.7956 0.31607 -1.5587 0.87868 -2.12132C8.94129 9.31607 9.70435 9 10.5 9c0.7956 0 1.5587 0.31607 2.1213 0.87868 0.5626 0.56262 0.8787 1.32572 0.8787 2.12132" stroke-width="1"></path><path stroke="#191919" stroke-linecap="round" stroke-linejoin="round" d="M10.5 13v1.5" stroke-width="1"></path></svg>